<svg xmlns="http://www.w3.org/2000/svg" viewBox="0 0 3000 3000">
    <defs>
        <style>
            .cls-1{fill:#fff;stroke:#000;stroke-width:10px;}.cls-1,.cls-2{stroke-miterlimit:10;}.cls-2{font-size:335.09px;fill:#ff0;stroke:#666;stroke-width:5px;font-family:ArchitectsDaughter-Regular,
            Architects Daughter;}
        </style>
    </defs>
    <g id="Layer_2" data-name="Layer 2">
        <g id="Layer_3" data-name="Layer 3">
            <rect width="3000" height="3000"/>
            <path class="cls-1"
                  d="M2016.16,2151.7,1711,1633.49c119.3-62.58,200.46-185.91,200.46-327.83,0-205.22-169.69-371.58-379-371.58s-379,166.36-379,371.58c0,140.63,79.69,263,197.2,326.1L1044.45,2151.7Z"/>
            <path class="cls-1"
                  d="M1983.27,2124.22,1698.76,1630.3a354.2,354.2,0,0,0,186.89-312.46c0-195.6-158.2-354.16-353.35-354.16s-353.36,158.56-353.36,354.16a354.19,354.19,0,0,0,183.85,310.82l-285.46,495.56Z"/>
            <path class="cls-1"
                  d="M1964.18,2097.7l-272.52-471.34c106.53-56.93,179-169.1,179-298.18,0-186.66-151.53-338-338.46-338s-338.46,151.32-338.46,338c0,127.9,71.16,239.21,176.1,296.61L1096.43,2097.7Z"/>
            <path class="cls-1"
                  d="M1940.07,2066.93,1682.7,1621.78c100.61-53.76,169.06-159.7,169.06-281.62,0-176.29-143.11-319.2-319.65-319.2s-319.66,142.91-319.66,319.2c0,120.81,67.21,225.92,166.31,280.14l-258.23,446.63Z"/>
            <path class="cls-1"
                  d="M1917.5,2038.13l-243.2-420.64c95.07-50.8,159.76-150.9,159.76-266.1,0-166.58-135.23-301.62-302-301.62s-302,135-302,301.62c0,114.15,63.5,213.47,157.15,264.7l-244,422Z"/>
            <path class="cls-1"
                  d="M1896.29,2011.05l-229.88-397.59c89.86-48,151-142.63,151-251.52,0-157.45-127.82-285.09-285.49-285.09s-285.5,127.64-285.5,285.09c0,107.89,60,201.78,148.54,250.2l-230.64,398.91Z"/>
            <path class="cls-1"
                  d="M1873.58,1982.07,1658,1609.15c84.28-45,141.63-133.79,141.63-235.92,0-147.68-119.89-267.4-267.78-267.4S1264,1225.55,1264,1373.23c0,101.2,56.3,189.26,139.33,234.68L1187,1982.07Z"/>
            <path class="cls-1"
                  d="M1851.73,1954.18,1649.84,1605c78.92-42.17,132.62-125.27,132.62-220.9,0-138.29-112.26-250.39-250.74-250.39S1281,1245.81,1281,1384.1c0,94.76,52.71,177.21,130.45,219.74l-202.56,350.34Z"/>
            <path class="cls-1"
                  d="M1828.7,1924.78l-187.42-324.16a232.36,232.36,0,0,0,123.11-205.07c0-128.37-104.22-232.44-232.77-232.44s-232.77,104.07-232.77,232.44a232.31,232.31,0,0,0,121.1,204l-188,325.24Z"/>
            <path class="cls-1"
                  d="M1805.06,1894.61l-172.58-298.48a213.92,213.92,0,0,0,113.36-188.82c0-118.2-96-214-214.33-214s-214.33,95.82-214.33,214a213.91,213.91,0,0,0,111.52,187.83l-173.15,299.47Z"/>
            <path class="cls-1"
                  d="M1781.72,1864.83,1623.8,1591.7a195.77,195.77,0,0,0,103.74-172.78c0-108.17-87.81-195.85-196.13-195.85s-196.12,87.68-196.12,195.85a195.75,195.75,0,0,0,102,171.87l-158.44,274Z"/>
            <path class="cls-1"
                  d="M1758.38,1835l-143.26-247.77a177.62,177.62,0,0,0,94.11-156.75c0-98.12-79.66-177.66-177.92-177.66s-177.92,79.54-177.92,177.66A177.56,177.56,0,0,0,1446,1586.44L1302.23,1835Z"/>
            <path class="cls-1"
                  d="M1735,1805.25l-128.6-222.42a159.42,159.42,0,0,0,84.48-140.7c0-88.08-71.51-159.49-159.72-159.49s-159.71,71.41-159.71,159.49a159.39,159.39,0,0,0,83.1,140l-129,223.16Z"/>
            <path class="cls-1"
                  d="M1711.7,1775.47,1597.77,1578.4a141.24,141.24,0,0,0,74.84-124.66c0-78-63.36-141.31-141.51-141.31s-141.51,63.26-141.51,141.31a141.26,141.26,0,0,0,73.63,124L1348.9,1775.47Z"/>
            <path class="cls-1" d="M1687.4,1744.44l-98.67-170.65a122.55,122.55,0,1,0-116.52-.57l-99,171.22Z"/>
            <path class="cls-1" d="M1662.46,1712.62l-83-143.57a103.09,103.09,0,1,0-98-.48l-83.29,144Z"/>
            <path class="cls-1" d="M1637.45,1680.69l-67.3-116.39a83.59,83.59,0,1,0-79.47-.39l-67.52,116.78Z"/>
            <path class="cls-1" d="M1612,1648.2l-51.31-88.74a63.72,63.72,0,1,0-60.58-.29l-51.48,89Z"/>
            <path class="cls-1" d="M1586,1615l-35-60.49a43.44,43.44,0,1,0-41.3-.21l-35.1,60.7Z"/>
            <path class="cls-1" d="M1558.94,1580.5l-18-31.11a22.34,22.34,0,1,0-21.24-.11l-18,31.22Z"/>
            <text class="cls-2" transform="matrix(-0.69, -0.72, 0.72, -0.69, 1247.16, 1725.72)">A</text>
            <text class="cls-2" transform="matrix(0.21, -0.98, 0.98, 0.21, 1018.59, 1339.68)">M</text>
            <text class="cls-2" transform="translate(1244.08 890.88) rotate(-22.26)">A</text>
            <text class="cls-2" transform="matrix(0.86, 0.51, -0.51, 0.86, 1685.96, 826.17)">D</text>
            <text class="cls-2" transform="matrix(0.12, 0.99, -0.99, 0.12, 2007.17, 1139.86)">A</text>
            <text class="cls-2" transform="translate(1950.03 1582.25) rotate(133.51)">Y</text>
        </g>
    </g>
</svg>
